<mxfile host="app.diagrams.net" modified="2024-03-20T08:02:22.177Z" agent="Mozilla/5.0 (Windows NT 10.0; Win64; x64; rv:123.0) Gecko/20100101 Firefox/123.0" etag="S1IpzGXmYUCZ6T9dWLqK" version="24.0.7" type="device">
  <diagram name="Page-1" id="Il1GTQjUQ4Zwj2Uf9HUS">
    <mxGraphModel dx="1236" dy="1135" grid="1" gridSize="10" guides="1" tooltips="1" connect="1" arrows="1" fold="1" page="1" pageScale="1" pageWidth="850" pageHeight="1100" math="0" shadow="0">
      <root>
        <mxCell id="0" />
        <mxCell id="1" parent="0" />
        <mxCell id="Z-zLw3CWTOMxtcCLPRXN-1" value="&lt;b&gt;&lt;font style=&quot;font-size: 17px;&quot;&gt;OVWeb&lt;/font&gt;&lt;/b&gt;" style="shape=umlFrame;whiteSpace=wrap;html=1;pointerEvents=0;width=160;height=50;" parent="1" vertex="1">
          <mxGeometry x="80" y="240" width="960" height="520" as="geometry" />
        </mxCell>
        <mxCell id="Z-zLw3CWTOMxtcCLPRXN-15" style="edgeStyle=orthogonalEdgeStyle;rounded=0;orthogonalLoop=1;jettySize=auto;html=1;exitX=1;exitY=0.25;exitDx=0;exitDy=0;entryX=0;entryY=0.25;entryDx=0;entryDy=0;dashed=1;endArrow=classic;endFill=0;endSize=9;" parent="1" source="Z-zLw3CWTOMxtcCLPRXN-4" target="Z-zLw3CWTOMxtcCLPRXN-7" edge="1">
          <mxGeometry relative="1" as="geometry" />
        </mxCell>
        <mxCell id="Z-zLw3CWTOMxtcCLPRXN-23" value="&lt;font style=&quot;font-size: 13px;&quot;&gt;uses&lt;/font&gt;" style="edgeLabel;html=1;align=center;verticalAlign=middle;resizable=0;points=[];" parent="Z-zLw3CWTOMxtcCLPRXN-15" vertex="1" connectable="0">
          <mxGeometry x="-0.1333" y="3" relative="1" as="geometry">
            <mxPoint y="13" as="offset" />
          </mxGeometry>
        </mxCell>
        <mxCell id="56XaRtXXzTW3m2q9kxmL-1" style="edgeStyle=orthogonalEdgeStyle;rounded=0;orthogonalLoop=1;jettySize=auto;html=1;entryX=0;entryY=0.25;entryDx=0;entryDy=0;dashed=1;" edge="1" parent="1" source="Z-zLw3CWTOMxtcCLPRXN-4" target="Z-zLw3CWTOMxtcCLPRXN-13">
          <mxGeometry relative="1" as="geometry" />
        </mxCell>
        <mxCell id="Z-zLw3CWTOMxtcCLPRXN-4" value="&lt;div style=&quot;font-size: 14px;&quot; align=&quot;left&quot;&gt;&lt;ul&gt;&lt;li&gt;Typescript&lt;/li&gt;&lt;li&gt;&lt;div&gt;Storybook&lt;br&gt;&lt;/div&gt;&lt;/li&gt;&lt;/ul&gt;&lt;/div&gt;" style="html=1;dropTarget=0;whiteSpace=wrap;align=left;fillColor=#dae8fc;strokeColor=#6c8ebf;" parent="1" vertex="1">
          <mxGeometry x="160" y="360" width="200" height="280" as="geometry" />
        </mxCell>
        <mxCell id="Z-zLw3CWTOMxtcCLPRXN-5" value="" style="shape=module;jettyWidth=8;jettyHeight=4;fillColor=#dae8fc;strokeColor=#6c8ebf;" parent="Z-zLw3CWTOMxtcCLPRXN-4" vertex="1">
          <mxGeometry x="1" width="20" height="20" relative="1" as="geometry">
            <mxPoint x="-27" y="7" as="offset" />
          </mxGeometry>
        </mxCell>
        <mxCell id="Z-zLw3CWTOMxtcCLPRXN-6" value="Frontend - NextJS 14" style="text;align=center;fontStyle=1;verticalAlign=middle;spacingLeft=3;spacingRight=3;strokeColor=none;rotatable=0;points=[[0,0.5],[1,0.5]];portConstraint=eastwest;html=1;fontSize=15;" parent="1" vertex="1">
          <mxGeometry x="160" y="360" width="170" height="26" as="geometry" />
        </mxCell>
        <mxCell id="Z-zLw3CWTOMxtcCLPRXN-16" style="edgeStyle=orthogonalEdgeStyle;rounded=0;orthogonalLoop=1;jettySize=auto;html=1;entryX=1;entryY=0.75;entryDx=0;entryDy=0;exitX=0;exitY=0.75;exitDx=0;exitDy=0;dashed=1;endArrow=classic;endFill=0;endSize=9;" parent="1" source="Z-zLw3CWTOMxtcCLPRXN-7" target="Z-zLw3CWTOMxtcCLPRXN-4" edge="1">
          <mxGeometry relative="1" as="geometry" />
        </mxCell>
        <mxCell id="Z-zLw3CWTOMxtcCLPRXN-24" value="&lt;font style=&quot;font-size: 13px;&quot;&gt;REST Services&lt;/font&gt;" style="edgeLabel;html=1;align=center;verticalAlign=middle;resizable=0;points=[];" parent="Z-zLw3CWTOMxtcCLPRXN-16" vertex="1" connectable="0">
          <mxGeometry x="-0.1167" y="4" relative="1" as="geometry">
            <mxPoint x="-7" y="6" as="offset" />
          </mxGeometry>
        </mxCell>
        <mxCell id="Z-zLw3CWTOMxtcCLPRXN-17" style="edgeStyle=orthogonalEdgeStyle;rounded=0;orthogonalLoop=1;jettySize=auto;html=1;entryX=1;entryY=0.25;entryDx=0;entryDy=0;endArrow=classic;endFill=0;endSize=9;dashed=1;" parent="1" source="Z-zLw3CWTOMxtcCLPRXN-7" target="Z-zLw3CWTOMxtcCLPRXN-13" edge="1">
          <mxGeometry relative="1" as="geometry" />
        </mxCell>
        <mxCell id="Z-zLw3CWTOMxtcCLPRXN-25" value="&lt;font style=&quot;font-size: 13px;&quot;&gt;transfer&lt;/font&gt;" style="edgeLabel;html=1;align=center;verticalAlign=middle;resizable=0;points=[];" parent="Z-zLw3CWTOMxtcCLPRXN-17" vertex="1" connectable="0">
          <mxGeometry x="0.0044" y="-2" relative="1" as="geometry">
            <mxPoint x="-6" y="10" as="offset" />
          </mxGeometry>
        </mxCell>
        <mxCell id="Z-zLw3CWTOMxtcCLPRXN-19" style="edgeStyle=orthogonalEdgeStyle;rounded=0;orthogonalLoop=1;jettySize=auto;html=1;entryX=0;entryY=0.3;entryDx=0;entryDy=0;endSize=9;endArrow=classic;endFill=0;dashed=1;" parent="1" target="Z-zLw3CWTOMxtcCLPRXN-10" edge="1">
          <mxGeometry relative="1" as="geometry">
            <mxPoint x="680" y="444" as="sourcePoint" />
            <Array as="points">
              <mxPoint x="681" y="444" />
            </Array>
          </mxGeometry>
        </mxCell>
        <mxCell id="Z-zLw3CWTOMxtcCLPRXN-22" value="&lt;font style=&quot;font-size: 13px;&quot;&gt;stores data&lt;br&gt;&lt;/font&gt;" style="edgeLabel;html=1;align=center;verticalAlign=middle;resizable=0;points=[];" parent="Z-zLw3CWTOMxtcCLPRXN-19" vertex="1" connectable="0">
          <mxGeometry x="-0.1333" y="-3" relative="1" as="geometry">
            <mxPoint x="9" y="9" as="offset" />
          </mxGeometry>
        </mxCell>
        <mxCell id="Z-zLw3CWTOMxtcCLPRXN-7" value="&lt;ul style=&quot;font-size: 13px;&quot;&gt;&lt;li style=&quot;font-size: 14px;&quot;&gt;&lt;font style=&quot;font-size: 14px;&quot;&gt;Java&lt;/font&gt;&lt;/li&gt;&lt;li style=&quot;font-size: 14px;&quot;&gt;&lt;font style=&quot;font-size: 14px;&quot;&gt;JPA&lt;/font&gt;&lt;/li&gt;&lt;li style=&quot;font-size: 14px;&quot;&gt;&lt;font style=&quot;font-size: 14px;&quot;&gt;Models&lt;/font&gt;&lt;/li&gt;&lt;li style=&quot;font-size: 14px;&quot;&gt;&lt;font style=&quot;font-size: 14px;&quot;&gt;Dto&lt;/font&gt;&lt;/li&gt;&lt;li style=&quot;font-size: 14px;&quot;&gt;&lt;font style=&quot;font-size: 14px;&quot;&gt;Services&lt;/font&gt;&lt;/li&gt;&lt;li style=&quot;font-size: 14px;&quot;&gt;&lt;font style=&quot;font-size: 14px;&quot;&gt;Controllers&lt;br&gt;&lt;/font&gt;&lt;/li&gt;&lt;/ul&gt;" style="html=1;dropTarget=0;whiteSpace=wrap;align=left;fillColor=#d5e8d4;strokeColor=#82b366;" parent="1" vertex="1">
          <mxGeometry x="480" y="360" width="200" height="280" as="geometry" />
        </mxCell>
        <mxCell id="Z-zLw3CWTOMxtcCLPRXN-8" value="" style="shape=module;jettyWidth=8;jettyHeight=4;fillColor=#d5e8d4;strokeColor=#82b366;" parent="Z-zLw3CWTOMxtcCLPRXN-7" vertex="1">
          <mxGeometry x="1" width="20" height="20" relative="1" as="geometry">
            <mxPoint x="-27" y="7" as="offset" />
          </mxGeometry>
        </mxCell>
        <mxCell id="Z-zLw3CWTOMxtcCLPRXN-9" value="Backend - Spring Boot" style="text;align=center;fontStyle=1;verticalAlign=middle;spacingLeft=3;spacingRight=3;strokeColor=none;rotatable=0;points=[[0,0.5],[1,0.5]];portConstraint=eastwest;html=1;fontSize=15;" parent="1" vertex="1">
          <mxGeometry x="480" y="360" width="170" height="26" as="geometry" />
        </mxCell>
        <mxCell id="Z-zLw3CWTOMxtcCLPRXN-20" style="edgeStyle=orthogonalEdgeStyle;rounded=0;orthogonalLoop=1;jettySize=auto;html=1;entryX=1;entryY=0.75;entryDx=0;entryDy=0;exitX=0;exitY=0.75;exitDx=0;exitDy=0;exitPerimeter=0;endArrow=classic;endFill=0;dashed=1;endSize=9;" parent="1" source="Z-zLw3CWTOMxtcCLPRXN-10" target="Z-zLw3CWTOMxtcCLPRXN-7" edge="1">
          <mxGeometry relative="1" as="geometry" />
        </mxCell>
        <mxCell id="Z-zLw3CWTOMxtcCLPRXN-21" value="&lt;font style=&quot;font-size: 13px;&quot;&gt;sends data&lt;/font&gt;" style="edgeLabel;html=1;align=center;verticalAlign=middle;resizable=0;points=[];" parent="Z-zLw3CWTOMxtcCLPRXN-20" vertex="1" connectable="0">
          <mxGeometry x="0.2" y="-3" relative="1" as="geometry">
            <mxPoint x="12" y="13" as="offset" />
          </mxGeometry>
        </mxCell>
        <mxCell id="Z-zLw3CWTOMxtcCLPRXN-10" value="&lt;font style=&quot;font-size: 15px;&quot;&gt;&lt;b&gt;Database - PostgreSQL&lt;/b&gt;&lt;br&gt;&lt;/font&gt;" style="shape=datastore;whiteSpace=wrap;html=1;fillColor=#fad7ac;strokeColor=#b46504;" parent="1" vertex="1">
          <mxGeometry x="800" y="360" width="200" height="280" as="geometry" />
        </mxCell>
        <mxCell id="Z-zLw3CWTOMxtcCLPRXN-11" value="&lt;font style=&quot;font-size: 15px;&quot;&gt;Flyway Migration&lt;/font&gt;" style="html=1;dropTarget=0;whiteSpace=wrap;fillColor=#fad7ac;strokeColor=#b46504;" parent="1" vertex="1">
          <mxGeometry x="810" y="580" width="170" height="80" as="geometry" />
        </mxCell>
        <mxCell id="Z-zLw3CWTOMxtcCLPRXN-12" value="" style="shape=module;jettyWidth=8;jettyHeight=4;fillColor=#fad7ac;strokeColor=#b46504;" parent="Z-zLw3CWTOMxtcCLPRXN-11" vertex="1">
          <mxGeometry x="1" width="20" height="20" relative="1" as="geometry">
            <mxPoint x="-27" y="7" as="offset" />
          </mxGeometry>
        </mxCell>
        <mxCell id="Z-zLw3CWTOMxtcCLPRXN-18" style="edgeStyle=orthogonalEdgeStyle;rounded=0;orthogonalLoop=1;jettySize=auto;html=1;entryX=0.75;entryY=1;entryDx=0;entryDy=0;exitX=1;exitY=0.75;exitDx=0;exitDy=0;dashed=1;endArrow=classic;endFill=0;endSize=9;" parent="1" source="Z-zLw3CWTOMxtcCLPRXN-13" target="Z-zLw3CWTOMxtcCLPRXN-7" edge="1">
          <mxGeometry relative="1" as="geometry" />
        </mxCell>
        <mxCell id="Z-zLw3CWTOMxtcCLPRXN-26" value="&lt;font style=&quot;font-size: 13px;&quot;&gt;sends user data&lt;/font&gt;" style="edgeLabel;html=1;align=center;verticalAlign=middle;resizable=0;points=[];" parent="Z-zLw3CWTOMxtcCLPRXN-18" vertex="1" connectable="0">
          <mxGeometry x="-0.1325" y="-3" relative="1" as="geometry">
            <mxPoint y="10" as="offset" />
          </mxGeometry>
        </mxCell>
        <mxCell id="56XaRtXXzTW3m2q9kxmL-2" style="edgeStyle=orthogonalEdgeStyle;rounded=0;orthogonalLoop=1;jettySize=auto;html=1;entryX=0.25;entryY=1;entryDx=0;entryDy=0;exitX=0;exitY=0.75;exitDx=0;exitDy=0;dashed=1;" edge="1" parent="1" source="Z-zLw3CWTOMxtcCLPRXN-13" target="Z-zLw3CWTOMxtcCLPRXN-4">
          <mxGeometry relative="1" as="geometry" />
        </mxCell>
        <mxCell id="Z-zLw3CWTOMxtcCLPRXN-13" value="&lt;font style=&quot;font-size: 15px;&quot;&gt;&lt;b&gt;User Management -Keycloak&lt;br&gt;&lt;/b&gt;&lt;/font&gt;" style="html=1;dropTarget=0;whiteSpace=wrap;fillColor=#b0e3e6;strokeColor=#0e8088;" parent="1" vertex="1">
          <mxGeometry x="330" y="660" width="180" height="90" as="geometry" />
        </mxCell>
        <mxCell id="Z-zLw3CWTOMxtcCLPRXN-14" value="" style="shape=module;jettyWidth=8;jettyHeight=4;fillColor=#b0e3e6;strokeColor=#0e8088;" parent="Z-zLw3CWTOMxtcCLPRXN-13" vertex="1">
          <mxGeometry x="1" width="20" height="20" relative="1" as="geometry">
            <mxPoint x="-27" y="7" as="offset" />
          </mxGeometry>
        </mxCell>
        <mxCell id="56XaRtXXzTW3m2q9kxmL-3" value="&lt;font style=&quot;font-size: 13px;&quot;&gt;transfer&lt;/font&gt;" style="edgeLabel;html=1;align=center;verticalAlign=middle;resizable=0;points=[];" vertex="1" connectable="0" parent="1">
          <mxGeometry x="280" y="690" as="geometry" />
        </mxCell>
        <mxCell id="56XaRtXXzTW3m2q9kxmL-4" value="&lt;font style=&quot;font-size: 13px;&quot;&gt;sends user data&lt;/font&gt;" style="edgeLabel;html=1;align=center;verticalAlign=middle;resizable=0;points=[];" vertex="1" connectable="0" parent="1">
          <mxGeometry x="260" y="740" as="geometry" />
        </mxCell>
      </root>
    </mxGraphModel>
  </diagram>
</mxfile>
